<?xml version="1.0" encoding="iso-8859-1"?>
<!-- Generator: Adobe Illustrator 25.1.0, SVG Export Plug-In . SVG Version: 6.00 Build 0)  -->
<svg version="1.1" id="Layer_1" xmlns="http://www.w3.org/2000/svg" xmlns:xlink="http://www.w3.org/1999/xlink" x="0px" y="0px"
	 viewBox="0 0 50 50" style="enable-background:new 0 0 50 50;" xml:space="preserve">
<path style="fill:none;stroke:#000000;stroke-width:2;stroke-miterlimit:10;" d="M20,35.041v-9.083c0-1.509,1.678-2.449,3.015-1.69
	l7.99,4.541c1.327,0.754,1.327,2.625,0,3.379l-7.99,4.541C21.678,37.491,20,36.55,20,35.041z"/>
<path style="fill:none;stroke:#000000;stroke-width:2;stroke-miterlimit:10;" d="M35,45H15C9.477,45,5,40.523,5,35V15
	C5,9.477,9.477,5,15,5h20c5.523,0,10,4.477,10,10v20C45,40.523,40.523,45,35,45z"/>
<line style="fill:none;stroke:#000000;stroke-width:2;stroke-miterlimit:10;" x1="45" y1="17" x2="5" y2="17"/>
<line style="fill:none;stroke:#000000;stroke-width:2;stroke-miterlimit:10;" x1="15" y1="5" x2="22" y2="17"/>
<line style="fill:none;stroke:#000000;stroke-width:2;stroke-miterlimit:10;" x1="28" y1="5" x2="35" y2="17"/>
</svg>